<!-- Created with Inkscape (http://www.inkscape.org/) -->
<svg xmlns:rdf="http://www.w3.org/1999/02/22-rdf-syntax-ns#" xmlns="http://www.w3.org/2000/svg" height="195" width="300" version="1.1" xmlns:cc="http://creativecommons.org/ns#" xmlns:dc="http://purl.org/dc/elements/1.1/">
<metadata>
<rdf:RDF>
<cc:Work rdf:about="">
<dc:format>image/svg+xml</dc:format>
<dc:type rdf:resource="http://purl.org/dc/dcmitype/StillImage"/>
<dc:title/>
</cc:Work>
</rdf:RDF>
</metadata>
<path fill="#FFF" d="m108.52,137.24c14-129.87,172.92-130.57,165.92-15.4l-4.7257,3.5005c1.0502,8.2262-26.954,28.179-31.33,25.554l-45.157,18.553c-35.88,8.9264-76.662-25.904-76.662-25.904s-2.8004-8.9264-8.0512-6.301z"/>
<path fill="#dd83fe" d="m162.13,24.063c-51.98,9.801-68.381,66.23-57.18,94.057l-2.104,4.9505-15.594-4.0842,7.5495,35.767s8.6634-19.059,15.842-19.307c21.326-51.644,47.491-93.07,72.243-87.129,21.535-7.9208,43.579-0.08038,51.5,4.3751,15.842-1.4851,24.646,14.179,28.606,34.105l10.857,35.21c8.8388-5.6884,19.957-23.022,22.932-21.71,1.2252-1.1377-2.6503-3.8404-2.6503-3.8404s6.0384-3.7631,3.1505-6.301c-17.86,0.35-8.85-12.689-31.77-28.004-17.16-33.955-54.44-45.157-63.54-48.132-107.12-32.224-189.56,9.098-196.91,11.548,10.851-0.35,108.34-23.628,165.75-2.8z"/>
<path fill="#580083" d="m199.75,12.677s26.06,9.8731,36.386,17.574c18.317,32.673,12.871,102.72,5.9406,119.06l3.8282,1.4079c-1.6089,25.866-15.996,35.88-17.853,35.88,0,0,4.6268-13.866,2.3991-16.96-22.401,29.208-27.086,19.992-10.997-6.8649l-26.583,6.8473c21.782-16.337,64.551-106.2,6.878-156.94z"/>
<path stroke-linejoin="miter" d="m258.1,67.564c-29.913,32.798-15.08,59.345,12.129,57.426" stroke="#000" stroke-linecap="round" stroke-miterlimit="4" stroke-dasharray="none" stroke-width="2.4000001" fill="none"/>
<path stroke-linejoin="miter" d="m246.4,150.05c-0.3226,23.965-17.52,38.149-18.746,37.449-1.2252-0.43756,4.8355-13.467,3.8729-18.193" stroke="#000" stroke-linecap="round" stroke-miterlimit="4" stroke-dasharray="none" stroke-width="3" fill="none"/>
<path fill="#b300fe" d="m105.37,117.64c-58.288-22.93-39.91-76.663,53.9-92.766-38.85,17.153-57.05,38.331-53.9,92.766z"/>
<path fill="#b300fe" d="m99.056,146.69c-4.551-3.15-11.027-17.85-7.176-26.43-36.406-10.67-39.556-6.12-39.556-6.12,3.1505,5.4258,8.5763,14.702,7.3511,30.28,9.6265,5.9509,12.602,21.703,14.702,32.03,0,0,7.8762-1.7503,24.679-29.754z"/>
<path fill="#dd83fe" d="m194.8,168.19s-48.706-0.56479-56.875-17.644l-34.698,39.701c12.376,5.5693,54.568,6.1608,91.572-22.057z"/>
<path fill="#580083" d="m115.52,139.05-0.65035,3.6992c-23.515,27.228-22.928,46.026-10.799,48.254,46.04-30.446,67.411-53.205,81.52-93.551,22.772-45.545,11.284-66.323-11.612-75.482l-3.5005,0.10253c14.35,54.954-40.11,105.35-54.96,116.98z"/>
<path d="m223.75,128.74c3.8366,1.8564,13.796-13.597,10.949-15.825-2.599-3.7129-24.313-11.684-28.273-12.056l-23.185,0.15379c-3.8366-0.61881-4.7594,3.4156-2.7792,4.777,16.708,7.1782,10.986,15.029,43.288,22.95z" stroke="#000" stroke-dasharray="none" stroke-miterlimit="4" stroke-width="2.4000001" fill="#b300fe"/>
<path fill="#580083" d="m272.23,123.83s-10.526-14.669-11.226-31.822c-0.0875-5.5133,4.5243-21.079,2.599-31.931l9.8922,9.4784c4.6382,15.402-1.1066,37.633,3.9692,48.835z"/>
<path fill-rule="evenodd" fill="#000" d="m199.53,14.889c34.276,7.8886,56.505,31.971,64.199,48,23.103,15.227,15.639,28.802,29.641,27.927,5.578,0.0088,3.3362,3.3785-0.0363,4.3377-1.6398-0.03094-2.4045,2.4047-0.86483,2.5319,3.1662,0.57726,3.4473,2.247-0.80628,3.3581-1.1377,4.2882-17.816,20.312-22.455,23.287-1.2552,8.7685-19.727,21.926-27.31,25.814-26.427,43.242-41.916,44.45-20.198,14.738,2.7185-3.7191-1.5191-4.6924-4.4557-3.0597-3.9604,0.74257-19.246,6.2435-23.949,5.5009-37.784,27.727-77.41,28.048-90.663,20.889-11.269-6.0873-2.3024-27.134,13.248-45.452,4.1406-3.6243-4.7478-9.6832-9.891-5.974-5.0633,4.2856-20.631,30.87-28.917,35.28-1.9729-0.38008-2.5477-11.851-4.183-14.868-2.3629-5.6884-7.4288-9.8927-9.3541-14.968-1.9253-4.3757-0.17503-13.039-1.4002-14.965-0.61259-3.413-6.2134-10.414-6.651-11.639,4.2881-2.7129,38.331,5.9509,45.594,8.1387,5.2508,1.2252,9.1537-4.7232,4.078-7.6986-39.776-16.628-57.474-69.483,65.32-92.066,4.3061,0.23207,6.295-2.0004,0.43815-3.6258-72.26-20.05-159.73,4.323-159.73,4.323-5.2508,1.226,88.087-41.469,188.35-9.802zm-196,8.493s95.742-42.759,196-11.092c34.276,7.8886,59.908,32.466,66.86,48.99,23.103,15.227,14.352,27.829,28.354,26.954,7.8762,1.7503,6.3681,6.1772,0.32003,8.0715,4.837,0.23691,4.8432,5.143-1.5452,6.7182-1.1377,4.2882-21.528,22.841-21.528,22.841-1.2552,8.7685-20.159,21.753-27.742,25.641-31.814,51.088-50.959,51.853-27.129,13.039-3.9604,0.74257-18.751,7.4811-23.454,6.7385-37.784,27.727-81.494,26.192-94.747,19.033-11.269-6.0873-1.6836-29.238,13.866-47.556,3.1505-3.5005-2.7676-6.0941-4.6929-3.9938-6.796,6.142-25.348,38.345-34.872,41.022-5.3145-0.87513-4.123-15.372-5.7583-18.39-2.3629-5.6884-9.8791-10.418-11.804-15.493-1.9253-4.3757,0.17503-14.965-1.0502-16.89-0.61259-3.413-7.9637-12.339-5.2508-16.015,2.8879-6.3885,43.932,5.9509,51.195,8.1387,2.8004,0.52508,4.8132-1.4877,1.1377-3.588-49.182-16.63-65.81-70.097,64.41-95.651-71.586-17.853-160.14,7.567-160.14,7.567-5.2508,1.226-7.3386-2.759-2.4379-6.084z"/>
<path fill="#FFF" d="m109.56,127.61c5.78-37.626,23.98-82.958,54.09-100.81-18.21,4.55-60.74,27.654-54.09,100.81z"/>
<path d="m278.72,89.109a7.3511,7.3511,0,1,1,-14.702,0,7.3511,7.3511,0,1,1,14.702,0z" fill-rule="evenodd" stroke="#000" stroke-miterlimit="4" stroke-dasharray="none" stroke-width="2.39999986" fill="#FFF"/>
<path fill-rule="evenodd" fill="#000" d="m274.12,89.196a2.7129,2.7129,0,0,1,-5.4258,0,2.7129,2.7129,0,1,1,5.4258,0z"/>
</svg>
