<!-- Created with Inkscape (http://www.inkscape.org/) -->
<svg xmlns:rdf="http://www.w3.org/1999/02/22-rdf-syntax-ns#" xmlns="http://www.w3.org/2000/svg" height="714" width="1065" version="1.1" xmlns:cc="http://creativecommons.org/ns#" xmlns:xlink="http://www.w3.org/1999/xlink" xmlns:dc="http://purl.org/dc/elements/1.1/">
<metadata>
<rdf:RDF>
<cc:Work rdf:about="">
<dc:format>image/svg+xml</dc:format>
<dc:type rdf:resource="http://purl.org/dc/dcmitype/StillImage"/>
<dc:title/>
</cc:Work>
</rdf:RDF>
</metadata>
<defs>
<linearGradient id="linearGradient4169">
<stop stop-color="#6d3167" offset="0"/>
<stop stop-color="#6a689e" offset="1"/>
</linearGradient>
<linearGradient id="linearGradient4078" y2="167.61" gradientUnits="userSpaceOnUse" y1="298.43" gradientTransform="translate(-60.397142,2.616062)" x2="805.21" x1="819.6">
<stop stop-color="#1f2060" offset="0"/>
<stop stop-color="#5f71a3" offset="1"/>
</linearGradient>
<linearGradient id="linearGradient4175" x1="1428.1" xlink:href="#linearGradient4169" gradientUnits="userSpaceOnUse" y1="503.7" gradientTransform="translate(-1260.3972,2.616062)" x2="1664.7" y2="192"/>
<filter id="filter4202" width="1.6870856" y="-0.12194727" x="-0.34354278" height="1.2438945" color-interpolation-filters="sRGB">
<feGaussianBlur stdDeviation="11.584592"/>
</filter>
<filter id="filter4210" width="1.6979609" y="-0.1212765" x="-0.34898037" height="1.242553" color-interpolation-filters="sRGB">
<feGaussianBlur stdDeviation="13.226712"/>
</filter>
<radialGradient id="radialGradient4232" xlink:href="#linearGradient4169" gradientUnits="userSpaceOnUse" cy="617.87" cx="540.95" gradientTransform="matrix(-0.04098867,2.2709932,-1.5831795,-0.02857447,1590.1594,-895.29061)" r="236.98"/>
</defs>
<path stroke-linejoin="miter" d="m279.48,690.32c30.06-19.423,71.318-67.019,64.477-90.948,0,0-5.7788,4.4543-14.118,2.6557,18.476-19.62,15.042-28.777,15.042-28.777s-10.628,13.244-19.13,15.86c22.4-27.959-11.282-59.679,46.599-115.27l174.3-200.46,30.739,149.77-28.823,114.76c-7.8618,34.222-54.557,86.986-136.32,115.78,5.7226-4.5781,4.9051-11.118,4.9051-11.118s-19.294,16.677-40.549,20.928c5.7226-7.6847,5.8862-16.023,5.8862-16.023s-9.8102,13.244-21.256,18.966c0,0-48.234,10.955-81.752,23.872z" stroke="#323c50" stroke-linecap="butt" stroke-miterlimit="4" stroke-dasharray="none" stroke-width="1.39999998" fill="#5f71a3"/>
<path stroke-linejoin="miter" d="m335.55,599.91,153.53-215.51" stroke="#372f68" stroke-linecap="butt" stroke-miterlimit="4" stroke-dasharray="none" stroke-width="1.39999998" fill="none"/>
<path stroke-linejoin="miter" d="m356.36,620.72c97.57-120.24,96.19-149.38,141.97-205.33l49.946-57.345" stroke="#372f68" stroke-linecap="butt" stroke-miterlimit="4" stroke-dasharray="none" stroke-width="1.39999998" fill="none"/>
<path stroke-linejoin="miter" d="m551.05,401.97s-48.558,60.12-87.867,108.68c-17.111,21.273-18.498,43.471-112.84,139.2" stroke="#372f68" stroke-linecap="butt" stroke-miterlimit="4" stroke-dasharray="none" stroke-width="1.39999998" fill="none"/>
<path stroke-linejoin="miter" d="m385.49,634.13c57.345-47.633,77.693-77.693,77.693-77.693,22.198-29.597,12.024-24.51,88.33-112.38" stroke="#372f68" stroke-linecap="butt" stroke-miterlimit="4" stroke-dasharray="none" stroke-width="1.39999998" fill="none"/>
<path stroke-linejoin="miter" d="m412.31,635.52c67.06-46.71,144.29-143.83,144.29-143.83" stroke="#372f68" stroke-linecap="butt" stroke-miterlimit="4" stroke-dasharray="none" stroke-width="1.39999998" fill="none"/>
<path stroke-linejoin="miter" d="m538.56,304.86s79.862,366.64-135.96,403.26c33.528,7.6306,95.266-6.4744,95.266-6.4744-6.3588,10.752,42.17-3.9598,42.17-3.9598,7.6306,1.6186,45.697-2.5146,45.697-2.5146,14.105,4.8558,58.732-8.3243,58.732-8.3243,10.174,6.9369,44.396-12.949,44.396-12.949,34.222,6.4744,123.43-75.736,126.21-86.835,8.7868,4.6246,35.309-43.09,35.309-43.09,56.899-126.22-1.9699-230.79-1.9699-230.79z" stroke="#000" stroke-linecap="butt" stroke-miterlimit="4" stroke-dasharray="none" stroke-width="1.39999998" fill="url(#radialGradient4232)"/>
<path stroke-linejoin="miter" d="m442.66,707s147.15-64.094,113.8-268.8" stroke="#372d5f" stroke-linecap="butt" stroke-miterlimit="4" stroke-dasharray="none" stroke-width="1.39999998" fill="none"/>
<path stroke-linejoin="miter" d="m475.36,702.42s153.04-66.056,88.946-371.48" stroke="#372d5f" stroke-linecap="butt" stroke-miterlimit="4" stroke-dasharray="none" stroke-width="1.39999998" fill="none"/>
<path stroke-linejoin="miter" d="m498.9,704.38s153.04-112.49,87.638-374.1" stroke="#372d5f" stroke-linecap="butt" stroke-miterlimit="4" stroke-dasharray="none" stroke-width="1.39999998" fill="none"/>
<path stroke-linejoin="miter" d="m523.75,699.81s150.42-139.96,84.368-377.37" stroke="#372d5f" stroke-linecap="butt" stroke-miterlimit="4" stroke-dasharray="none" stroke-width="1.39999998" fill="none"/>
<path stroke-linejoin="miter" d="m543.37,693.27s158.93-106.6,81.098-378.02" stroke="#372d5f" stroke-linecap="butt" stroke-miterlimit="4" stroke-dasharray="none" stroke-width="1.39999998" fill="none"/>
<path stroke-linejoin="miter" d="m570.19,691.96s161.54-162.85,73.904-377.37" stroke="#372d5f" stroke-linecap="butt" stroke-miterlimit="4" stroke-dasharray="none" stroke-width="1.39999998" fill="none"/>
<path stroke-linejoin="miter" d="m585.23,690s160.89-127.53,83.06-373.44" stroke="#372d5f" stroke-linecap="butt" stroke-miterlimit="4" stroke-dasharray="none" stroke-width="1.39999998" fill="none"/>
<path stroke-linejoin="miter" d="m609.43,693.92s158.27-143.23,77.174-376.06" stroke="#372d5f" stroke-linecap="butt" stroke-miterlimit="4" stroke-dasharray="none" stroke-width="1.39999998" fill="none"/>
<path stroke-linejoin="miter" d="m644.09,681.49s130.15-150.42,62.132-362.98" stroke="#372d5f" stroke-linecap="butt" stroke-miterlimit="4" stroke-dasharray="none" stroke-width="1.39999998" fill="none"/>
<path stroke-linejoin="miter" d="m657.83,683.45s140.61-178.55,64.748-366.9" stroke="#372d5f" stroke-linecap="butt" stroke-miterlimit="4" stroke-dasharray="none" stroke-width="1.39999998" fill="none"/>
<path stroke-linejoin="miter" d="m676.14,674.95s147.81-188.36,64.748-355.78" stroke="#372d5f" stroke-linecap="butt" stroke-miterlimit="4" stroke-dasharray="none" stroke-width="1.39999998" fill="none"/>
<path stroke-linejoin="miter" d="m693.14,672.99s143.88-193.59,64.748-355.13" stroke="#372d5f" stroke-linecap="butt" stroke-miterlimit="4" stroke-dasharray="none" stroke-width="1.39999998" fill="none"/>
<path stroke-linejoin="miter" d="m719.3,661.22s145.19-189.01,61.478-342.7" stroke="#372d5f" stroke-linecap="butt" stroke-miterlimit="4" stroke-dasharray="none" stroke-width="1.39999998" fill="none"/>
<path stroke-linejoin="miter" d="m750.04,644.87s117.72-184.43,49.705-325.7" stroke="#372d5f" stroke-linecap="butt" stroke-miterlimit="4" stroke-dasharray="none" stroke-width="1.39999998" fill="none"/>
<path stroke-linejoin="miter" d="m777.51,623.94s107.91-180.51,40.549-304.77" stroke="#372d5f" stroke-linecap="butt" stroke-miterlimit="4" stroke-dasharray="none" stroke-width="1.39999998" fill="none"/>
<path stroke-linejoin="miter" d="m812.83,590.58c75.866-141.92,61.477-222.37,25.507-271.42" stroke="#372d5f" stroke-linecap="butt" stroke-miterlimit="4" stroke-dasharray="none" stroke-width="1.39999998" fill="none"/>
<path stroke-linejoin="miter" d="m544.36,307.72c-93.417,156.31-173.32,185.12-178.87,178.87,0,0-50.272,28.975-78.482,25.507,0,0-14.625,5.4305-33.355,1.962,0,0-18.601,8.0205-51.667-2.6161,0,0-46.224,28.666-112.82,3.9241-3.4336-5.7226-0.1635,4.2511-34.99-13.898-28.622-8.16-36.634-17.48-36.634-17.48-3.4336-3.1066,3.1066-5.7226,8.5022-5.8861-55.428-30.248,9.6466-4.2511,44.964-46.272-9.6468,0,0.2244-9.003,10.342-15.206,13.746-8.4274,32.006-20.111,48.029-38.587,0,0-25.507,6.0496-33.355-5.7226,36.952-13.08,70.961-81.261,95.486-105.46-15.696,0.49051-20.505,1.0495-7.4244-11.704,9.1562-7.6847,11.773,0.83278,37.933-24.02,51.34-35.317,65.374-85.45,135.03-75.64l191.04,34.683z" stroke="#000" stroke-linecap="butt" stroke-miterlimit="4" stroke-dasharray="none" stroke-width="1.39999998" fill="url(#linearGradient4175)"/>
<path stroke-linejoin="miter" d="m538.8,296.93c-105.95,75.21,14.38,34.01-175.93,189.67" stroke="#372d5f" stroke-linecap="butt" stroke-miterlimit="4" stroke-dasharray="none" stroke-width="1.39999998" fill="none"/>
<path stroke-linejoin="miter" d="m535.53,280.58c-79.79,37.933-45.127,76.52-249.83,230.87" stroke="#372d5f" stroke-linecap="butt" stroke-miterlimit="4" stroke-dasharray="none" stroke-width="1.39999998" fill="none"/>
<path stroke-linejoin="miter" d="m254.3,514.72c200.13-134.73,201.44-217.79,279.92-234.14" stroke="#372d5f" stroke-linecap="butt" stroke-miterlimit="4" stroke-dasharray="none" stroke-width="1.39999998" fill="none"/>
<path stroke-linejoin="miter" d="m529.64,266.19c-94.83,32.7-150.1,103.99-150.1,103.99s-56.572,69.326-177.57,140.61" stroke="#372d5f" stroke-linecap="butt" stroke-miterlimit="4" stroke-dasharray="none" stroke-width="1.39999998" fill="none"/>
<path stroke-linejoin="miter" d="m138.54,525.18c78.482-13.08,208.63-141.59,208.63-141.59s53.629-86.657,181.16-116.74" stroke="#372d5f" stroke-linecap="butt" stroke-miterlimit="4" stroke-dasharray="none" stroke-width="1.39999998" fill="none"/>
<path stroke-linejoin="miter" d="m519.83,259.69c-104.64,18.966-214.52,137.02-214.52,137.02s-100.72,105.62-217.13,118.7" stroke="#372d5f" stroke-linecap="butt" stroke-miterlimit="4" stroke-dasharray="none" stroke-width="1.39999998" fill="none"/>
<path stroke-linejoin="miter" d="m90.143,514.06c105.3-19.62,206.02-126.22,206.02-126.22s127.53-126.88,213.86-138c-79.79-26.161-233.81,128.51-233.81,128.51s-118.7,118.05-222.04,120.67c82.406-16.35,205.69-128.19,205.69-128.19,106.6-105.95,188.68-147.81,252.78-124.26" stroke="#372d5f" stroke-linecap="butt" stroke-miterlimit="4" stroke-dasharray="none" stroke-width="1.39999998" fill="none"/>
<path stroke-linejoin="miter" d="m515.25,241.34c-65.4-18.97-140.94-20.93-302.48,140.61,0,0-156.64,127.53-195.22,100.06" stroke="#372d5f" stroke-linecap="butt" stroke-miterlimit="4" stroke-dasharray="none" stroke-width="1.39999998" fill="none"/>
<path stroke-linejoin="miter" d="m25.397,476.13c35.317,6.5402,103.66-51.34,103.66-51.34,234.8-189.66,225.97-213.53,387.51-189.99" stroke="#372d5f" stroke-linecap="butt" stroke-miterlimit="4" stroke-dasharray="none" stroke-width="1.39999998" fill="none"/>
<path stroke-linejoin="miter" d="m517.87,228.26c-156.97-58.21-160.24-22.89-374.1,158.93,0,0-92.87,95.486-138.65,75.212" stroke="#372d5f" stroke-linecap="butt" stroke-miterlimit="4" stroke-dasharray="none" stroke-width="1.39999998" fill="none"/>
<path stroke-linejoin="miter" d="m68.563,428.39c25.18-0.32701,85.267-61.477,85.267-61.477,177.89-175.27,211-218.11,358.15-142.57" stroke="#372d5f" stroke-linecap="butt" stroke-miterlimit="4" stroke-dasharray="none" stroke-width="1.39999998" fill="none"/>
<path stroke-linejoin="miter" d="m506.75,215.18c-138.65-59.52-194.24-75.87-379.98,162.2" stroke="#372d5f" stroke-linecap="butt" stroke-miterlimit="4" stroke-dasharray="none" stroke-width="1.39999998" fill="none"/>
<path stroke-linejoin="miter" d="m191.51,266.19c122.31-68.67,95.49-155,310.66-59.51" stroke="#372d5f" stroke-linecap="butt" stroke-miterlimit="4" stroke-dasharray="none" stroke-width="1.39999998" fill="none"/>
<path stroke-linejoin="miter" d="m1020.9,546.72c4.1621,21.967-27.516,23.817-59.195-17.111-45.09-63.819-61.97-141.97-70.756-178.51,0,0,1.3874-46.246,3.6997-46.246s34.684-5.5495,34.684-5.5495c62.894,60.582,46.246,132.73,50.408,191,0,73.436,39.603,74.27,41.159,56.42z" stroke="#323c5a" stroke-linecap="butt" stroke-miterlimit="4" stroke-dasharray="none" stroke-width="1.39999998" fill="#46518e"/>
<path filter="url(#filter4202)" fill="#813a80" d="m979.3,535.16c-49.06-45.45-80.94-186.37-80.94-186.37l3.2372-36.072,24.51-5.5495c68.999,74.558,28.003,183.85,53.183,227.99z"/>
<path stroke-linejoin="miter" d="m687.94,139.53c-3.9309-10.752,32.256-22.776,16.88-33.066-6.2131,3.5153-10.067,0.44644-9.2491-6.012,0.4905-6.3766-3.1787-8.9013-5.5495-5.5495-4.1693,6.2949-6.9393-0.85919-5.5495-7.3993,1.1445-8.6657-7.3713-14.825-7.3713-7.5488-0.327,4.6599-8.6583,4.8361-15.609-9.2612-7.8482-20.683-23.065-48.791-52.169-64.814-9.4832-4.5781-10.384-0.19878-6.7056,4.6246,5.6409,4.9869,1.7404,10.235-5.7808,6.4744-42.43-22.195-101.74-9.9398-101.74-9.9398,6.25,14.799-104.01,37.506-159.05,46.061-46.708,10.868-69.618-1.0638-75.167,8.4166,0,2.1967,23.105,10.151,25.418,13.735-3.6996,6.012-58.617,3.9309-67.982,6.9369,161.11,36.661,134.37,34.572,87.405,40.234-37.279,1.308-54.683,10.013,2.0531,16.226,66.056,8.9927,32.985,39.945,9.2772,73.954,48.397-54.61,102.75-43.274,143.13-23.817,38.75,19.947,87.087,25.244,87.087,25.244,52.321,2.4526,137.89-62.396,140.67-74.496z" stroke="#323c50" stroke-linecap="butt" stroke-miterlimit="4" stroke-dasharray="none" stroke-width="1.39999998" fill="#5f71a3"/>
<path stroke-linejoin="miter" d="m561.69,210.52-94.81-20.81" stroke="#363164" stroke-linecap="butt" stroke-miterlimit="4" stroke-dasharray="none" stroke-width="1.39999998" fill="none"/>
<path stroke-linejoin="miter" d="m584.35,198.03s-63.295-18.736-83.242-22.66c-45.127-4.2511-73.916-18.092-118.39-17.111" stroke="#363164" stroke-linecap="butt" stroke-miterlimit="4" stroke-dasharray="none" stroke-width="1.39999998" fill="none"/>
<path stroke-linejoin="miter" d="m348.96,126.35s74.785-3.4248,120.24,10.637c65.402,15.696,126.25,52.72,126.25,52.72" stroke="#363164" stroke-linecap="butt" stroke-miterlimit="4" stroke-dasharray="none" stroke-width="1.39999998" fill="none"/>
<path stroke-linejoin="miter" d="m620.88,172.13s-82.401-56.13-97.116-66.594c-19.29-20.277-55.98-22.121-85.09-20.813-67.03,7.848-146.6-3.237-146.6-3.237" stroke="#363164" stroke-linecap="butt" stroke-miterlimit="4" stroke-dasharray="none" stroke-width="1.39999998" fill="none"/>
<path stroke-linejoin="miter" d="m304.56,57.438s60.616,5.9422,135.5-0.92492c86.33,2.6161,101.32,8.0381,123.23,31.91,32.701,42.511,71.929,74.456,71.929,74.456" stroke="#363164" stroke-linecap="butt" stroke-miterlimit="4" stroke-dasharray="none" stroke-width="1.39999998" fill="none"/>
<path stroke-linejoin="miter" d="m648.17,154.56s-67.962-70.232-79.08-90.179c-37.61-50.688-89.34-22.355-182.21-11.563" stroke="#363164" stroke-linecap="butt" stroke-miterlimit="4" stroke-dasharray="none" stroke-width="1.39999998" fill="none"/>
<path stroke-linejoin="miter" d="m496.48,6.5678c133.09,22.89,103.57,63.46,160.47,145.21" stroke="#363164" stroke-linecap="butt" stroke-miterlimit="4" stroke-dasharray="none" stroke-width="1.39999998" fill="none"/>
<path stroke-linejoin="miter" d="m666.2,147.62c-28.77-99.409-30.85-94.054-57.34-117.92" stroke="#363164" stroke-linecap="butt" stroke-miterlimit="4" stroke-dasharray="none" stroke-width="1.39999998" fill="none"/>
<path stroke-linejoin="miter" d="m679.61,76.861c2.2891,31.72-18.835,24.704-12.949,69.831" stroke="#363164" stroke-linecap="butt" stroke-miterlimit="4" stroke-dasharray="none" stroke-width="1.39999998" fill="none"/>
<path stroke-linejoin="miter" d="m690.25,97.21-15.72,36.996" stroke="#363164" stroke-linecap="butt" stroke-miterlimit="4" stroke-dasharray="none" stroke-width="1.39999998" fill="none"/>
<path fill="url(#linearGradient4078)" d="m542.72,309.36s32.701,10.791,338.13,9.8102l16.677-8.1752c22.564,4.2511,44.8-15.042,44.8-15.042,82.079-6.8672,121.65-72.923,117.07-99.41l-6.5401,5.5591c-4.1621,4.3934-5.2554-1.3341-2.9431-8.5022,2.3123-9.1336-4.3763-8.0794-9.8102-7.8482-57.229,5.4339-90.61-63.066-240.68-67.691-218.77,15.042-183.45,108.57-289.73,98.756,8.8292,4.2511,12.753,27.796,3.9241,33.682,15.369,3.2701,36.625,46.435,29.104,58.861z"/>
<path d="m1059.4,196.54-6.5401,5.5591c-4.1621,4.3934-5.2554-1.3341-2.9431-8.5022,2.3123-9.1336-4.3763-8.0794-9.8102-7.8482-3.1066,21.746-5.8002,22.742-9.3973,25.358-3.27,2.9431-2.7176,10.378,4.64,7.1076,16.677-5.8861,24.199-14.038,24.199-14.038s0.5059-5.0203-0.1481-7.6364z" stroke="#000" stroke-dasharray="none" stroke-miterlimit="4" stroke-width="2" fill="#5e74a5"/>
<path d="m543.37,308.7s32.047,11.445,337.47,10.464l16.677-8.1752c22.564,4.2511,44.8-15.042,44.8-15.042,82.079-6.8672,121.65-72.923,117.07-99.41l-6.5401,5.5591c-4.1621,4.3934-5.2554-1.3341-2.9431-8.5022,2.3123-9.1336-4.3763-8.0794-9.8102-7.8482-57.229,5.4339-90.61-63.066-240.68-67.691-218.77,15.042-185.09,107.59-291.36,97.775" stroke="#1f2060" stroke-dasharray="none" stroke-miterlimit="4" stroke-width="3" fill="none"/>
<path stroke-linejoin="miter" d="m1016.3,202.19a23.123,18.267,0,0,1,-46.246,0,23.123,18.267,0,1,1,46.246,0z" stroke="#000" stroke-linecap="round" stroke-miterlimit="4" stroke-dasharray="none" stroke-width="1" fill="#c1ced4"/>
<path stroke-linejoin="miter" d="m1011,203.35a15.724,15.724,0,1,1,-31.447,0,15.724,15.724,0,1,1,31.447,0z" stroke="#000" stroke-linecap="round" stroke-miterlimit="4" stroke-dasharray="none" stroke-width="1" fill="#6171a2"/>
<path fill="#241f19" d="m1003.8,202.42a6.012,6.012,0,1,1,-12.024,0,6.012,6.012,0,1,1,12.024,0z"/>
<path stroke-linejoin="miter" d="m913.38,192.13s-13.734,22.564-2.1256,38.75c2.7796,2.7796,16.514,25.997,20.929,34.99,8.1752,14.552,29.431,16.023,29.431,16.023-24.035,3.9241-35.317-18.803-45.127-34.663-26.978-34.172-5.2321-52.158-3.1066-55.101z" stroke="#000" stroke-linecap="butt" stroke-width="1px" fill="#6c718f"/>
<path stroke-linejoin="miter" d="m895.07,229.73c-23.218-3.2701-34.895-15.602-42.491-30.943-8.1414-16.444-25.609-21.051-34.683-1.4307,21.574,28.196,43.472,41.728,77.174,32.374z" stroke="#434e8a" stroke-linecap="butt" stroke-miterlimit="4" stroke-dasharray="none" stroke-width="3" fill="#4d2875"/>
<path stroke-linejoin="miter" d="m896.71,234.64-1.7985-5.2321c-65.729,5.7226-49.869-39.241-97.775-34.99-10.955,3.9241-3.597,21.746-3.597,21.746,67.691,46.926,103.17,18.476,103.17,18.476z" stroke="#434e8a" stroke-linecap="butt" stroke-miterlimit="4" stroke-dasharray="none" stroke-width="3" fill="#5f71a3"/>
<path stroke-linejoin="miter" d="m900.47,242.98c0.23123-1.9654-0.013-7.5773-3.5971-8.5022-60.333,23.054-62.458-21.91-107.26-18.966-11.118,65.402,99.083,38.914,110.86,27.469z" stroke="#434e8a" stroke-linecap="butt" stroke-miterlimit="4" stroke-dasharray="none" stroke-width="3" fill="#4d2875"/>
<path stroke-linejoin="miter" d="m901.61,250.66-1.308-8.0117c-63.603,25.507-62.132-5.5591-108.57-3.7606-5.2321,59.515,109.87,11.772,109.87,11.772z" stroke="#434e8a" stroke-linecap="butt" stroke-miterlimit="4" stroke-dasharray="none" stroke-width="3" fill="#5f71a3"/>
<path stroke-linejoin="miter" d="m904.55,256.87-3.2701-6.5402s-59.679,23.872-101.05,12.099c-10.464,52.158,101.86,0.32702,104.32-5.5591z" stroke="#434e8a" stroke-linecap="butt" stroke-miterlimit="4" stroke-dasharray="none" stroke-width="3" fill="#4d2875"/>
<path stroke-linejoin="miter" d="m910.91,264.39c-23.872,20.765-87.218,60.871-100.19,20.117,57.39,0.49051,93.879-27.748,93.879-27.748z" stroke="#434e8a" stroke-linecap="butt" stroke-miterlimit="4" stroke-dasharray="none" stroke-width="3" fill="#5f71a3"/>
<path stroke-linejoin="miter" d="m952.8,296.6c-12.835-9.0745-12.835-17.168-26.815-23.953-11.036-3.5971-22.645-15.696-23.708-27.06,0.327-5.0686-0.1635-8.8292-3.4336-11.772-4.4964-4.4146-3.8423-17.985,2.7796-20.274-5.3956-0.0817-13.244,9.3197-5.4774,21.991,2.3117,2.3835,3.0974,2.9971,3.1884,7.6029,0.1635,12.426,11.772,26.406,20.765,29.758,2.8613,0.73577,13.653,7.5212,17.331,12.59,5.8861,8.5022,15.369,11.118,15.369,11.118z" stroke="#000" stroke-linecap="butt" stroke-width="1px" fill="#6c718f"/>
<path stroke-linejoin="miter" d="m801.24,610.08s9.2492-9.7116,4.6246-25.898c-13.874-123.01,18.961-162.79,68.444-266.38,20.928-36.298,30.027-16.244,33.297,17.111,3.2701,35.644,8.8076,66.784-34.684,98.504-64.011,53.748-30.985,147.06-71.681,176.66z" stroke="#323c5a" stroke-linecap="butt" stroke-miterlimit="4" stroke-dasharray="none" stroke-width="1.39999998" fill="#46518f"/>
<path filter="url(#filter4210)" fill="#813580" d="m812.94,574.99c-11.562-106.83,38.784-189.3,57.745-233.7,13.874-23.585,26.511-50.805,30.211,3.7654,13.411,92.954-81.019,51.885-87.955,229.93z"/>
<path stroke-linejoin="miter" d="m542.39,310.34c7.5212-19.293-10.791-56.245-29.758-59.842,15.369-16.023,1.308-30.739-4.2511-34.336,0,0,17.004,1.635,30.085-0.65402" stroke="#6971a0" stroke-linecap="butt" stroke-miterlimit="4" stroke-dasharray="none" stroke-width="4" fill="none"/>
</svg>
