<!-- Created with Inkscape (http://www.inkscape.org/) -->
<svg xmlns:rdf="http://www.w3.org/1999/02/22-rdf-syntax-ns#" xmlns="http://www.w3.org/2000/svg" height="282" width="390" version="1.1" xmlns:cc="http://creativecommons.org/ns#" xmlns:xlink="http://www.w3.org/1999/xlink" xmlns:dc="http://purl.org/dc/elements/1.1/">
<metadata>
<rdf:RDF>
<cc:Work rdf:about="">
<dc:format>image/svg+xml</dc:format>
<dc:type rdf:resource="http://purl.org/dc/dcmitype/StillImage"/>
<dc:title/>
</cc:Work>
</rdf:RDF>
</metadata>
<defs>
<linearGradient id="linearGradient4037">
<stop stop-color="#2896c2" offset="0"/>
<stop stop-color="#4fe7f9" offset="1"/>
</linearGradient>
<linearGradient id="linearGradient3984">
<stop stop-color="#2d79ad" offset="0"/>
<stop stop-color="#0cc1ee" offset="1"/>
</linearGradient>
<linearGradient id="linearGradient3880" y2="106.26" gradientUnits="userSpaceOnUse" x2="619.53" gradientTransform="matrix(-1,0,0,1,804.80704,-13.315579)" y1="257.74" x1="576.97">
<stop stop-color="#2d8fbe" offset="0"/>
<stop stop-color="#98ffff" offset="0.52396"/>
<stop stop-color="#a9ffff" offset="1"/>
</linearGradient>
<radialGradient id="radialGradient3938" gradientUnits="userSpaceOnUse" cy="92.881" cx="406.96" gradientTransform="matrix(-0.81913908,0.71571436,-0.8375209,-0.95854736,818.11434,-99.127856)" r="36.969">
<stop stop-color="#FFF" offset="0"/>
<stop stop-color="#98ffff" offset="0.27825"/>
<stop stop-color="#7acfe3" offset="0.68374"/>
<stop stop-color="#5682b1" offset="1"/>
</radialGradient>
<linearGradient id="linearGradient4149" y2="250.57" gradientUnits="userSpaceOnUse" x2="460.29" gradientTransform="matrix(-1,0,0,1,764.80704,-13.315579)" y1="146.61" x1="384.59">
<stop stop-color="#FFF" offset="0"/>
<stop stop-color="#78e6ff" offset="0.10336"/>
<stop stop-color="#18a4d9" offset="0.41519"/>
<stop stop-color="#3668a3" offset="1"/>
</linearGradient>
<linearGradient id="linearGradient4283" y2="311.38" xlink:href="#linearGradient3984" gradientUnits="userSpaceOnUse" x2="696.88" y1="285.13" x1="673.6"/>
<linearGradient id="linearGradient4285" y2="320.93" xlink:href="#linearGradient3984" gradientUnits="userSpaceOnUse" x2="688.94" y1="299.88" x1="669.29"/>
<linearGradient id="linearGradient4287" y2="297.65" xlink:href="#linearGradient4037" gradientUnits="userSpaceOnUse" x2="674.77" y1="284.63" x1="670.12"/>
<linearGradient id="linearGradient4289" y2="312.34" xlink:href="#linearGradient4037" gradientUnits="userSpaceOnUse" x2="669.77" y1="291.72" x1="650.65"/>
<linearGradient id="linearGradient4337" y2="238.54" xlink:href="#linearGradient4037" gradientUnits="userSpaceOnUse" x2="146.05" y1="279.06" x1="189.09"/>
<linearGradient id="linearGradient4341" y2="238.96" gradientUnits="userSpaceOnUse" x2="146.18" y1="279.48" x1="188.81">
<stop stop-color="#207699" offset="0"/>
<stop stop-color="#07b3c7" offset="1"/>
</linearGradient>
<linearGradient id="linearGradient4344" y2="246.18" gradientUnits="userSpaceOnUse" x2="496.12" gradientTransform="translate(-344,0)" y1="277.56" x1="512.58">
<stop stop-color="#45afd9" offset="0"/>
<stop stop-color="#89effb" offset="1"/>
</linearGradient>
<linearGradient id="linearGradient4349" y2="251.78" xlink:href="#linearGradient3984" gradientUnits="userSpaceOnUse" x2="505.96" gradientTransform="translate(-344,0)" y1="290.82" x1="546.11"/>
<radialGradient id="radialGradient4286" xlink:href="#linearGradient3984" gradientUnits="userSpaceOnUse" cy="190.28" cx="726.28" gradientTransform="matrix(0.84033246,1.5758476,-1.6125439,0.85990102,15.84828,-1114.1587)" r="48.178"/>
<radialGradient id="radialGradient4313" gradientUnits="userSpaceOnUse" cy="295.72" cx="587.4" gradientTransform="matrix(-4.3531353,0.30736944,0.04898406,0.69373937,2751.2842,-293.19232)" r="59.724">
<stop stop-color="#2d8fbe" offset="0"/>
<stop stop-color="#98ffff" offset="0.86069"/>
<stop stop-color="#a9ffff" offset="1"/>
</radialGradient>
<linearGradient id="linearGradient4328" x1="504.42" xlink:href="#linearGradient3984" gradientUnits="userSpaceOnUse" y1="84.391" gradientTransform="matrix(-1,0,0,1,660.80704,-13.315579)" x2="442.15" y2="43.716"/>
</defs>
<path stroke-linejoin="miter" d="M270.76,69.569c-28.25-67.038-91.9-67.603-91.9-67.603,0.18831,8.8506-2.6363,34.084-42.935,66.285,23.915-1.6948,19.584,23.727,19.584,23.727z" stroke="#0062bc" stroke-linecap="butt" stroke-width="1px" fill="url(#linearGradient4328)"/>
<path stroke-linejoin="miter" d="M240,37.925c-19.3-20.506-45.52-23.944-45.52-23.944" stroke="#256782" stroke-linecap="butt" stroke-width="1px" fill="none"/>
<path stroke-linejoin="miter" d="M223.22,44c-18.28-19.568-39.63-21.583-39.63-21.583" stroke="#256782" stroke-linecap="butt" stroke-width="1px" fill="none"/>
<path stroke-linejoin="miter" d="M203.11,50.997c-10.12-14.248-25.03-19.308-25.03-19.308" stroke="#256782" stroke-linecap="butt" stroke-width="1px" fill="none"/>
<path stroke-linejoin="miter" d="M193.97,57.66c-11.19-10.386-25.03-16.91-25.03-16.91" stroke="#256782" stroke-linecap="butt" stroke-width="1px" fill="none"/>
<path stroke-linejoin="miter" d="M178.17,61.788c-10.66-7.989-20.61-10.269-20.61-10.269" stroke="#256782" stroke-linecap="butt" stroke-width="1px" fill="none"/>
<path stroke-linejoin="miter" d="m163.56,67.51c-3.3289-0.66578-13.049-5.5925-13.049-5.5925" stroke="#256782" stroke-linecap="butt" stroke-width="1px" fill="none"/>
<path stroke-linejoin="miter" d="M239.21,38.019c-19.5-19.659-45.06-23.473-45.06-23.473" stroke="#50ffff" stroke-linecap="butt" stroke-width="1px" fill="none"/>
<path stroke-linejoin="miter" d="M222.42,44.283c-17.99-18.815-39.62-21.018-39.62-21.018" stroke="#50ffff" stroke-linecap="butt" stroke-width="1px" fill="none"/>
<path stroke-linejoin="miter" d="M202.32,51.656c-10.12-14.248-25.03-19.307-25.03-19.307" stroke="#50ffff" stroke-linecap="butt" stroke-width="1px" fill="none"/>
<path stroke-linejoin="miter" d="M193.08,58.225c-11.18-10.386-25.03-16.91-25.03-16.91" stroke="#50ffff" stroke-linecap="butt" stroke-width="1px" fill="none"/>
<path stroke-linejoin="miter" d="M178.22,62.541c-10.65-7.989-21.17-9.986-21.17-9.986" stroke="#50ffff" stroke-linecap="butt" stroke-width="1px" fill="none"/>
<path stroke-linejoin="miter" d="m162.86,68.075c-3.3289-0.66578-13.049-5.5925-13.049-5.5925" stroke="#50ffff" stroke-linecap="butt" stroke-width="1px" fill="none"/>
<path d="M270.76,69.193c-11.3-25.046-25.61-37.38-25.61-37.38,3.013,6.9675,11.299,12.146-8.6623,2.7305,11.299,32.389-7.1558,5.461-14.877,9.0389,5.6493,16.571-8.474,1.8831-22.597,4.3311,9.4155,15.441-9.4155,1.5065-12.617,5.2727,2.8247,14.688-8.474,3.7662-12.429,6.7792-2.6364,7.1558-1.3182,7.1558-12.052,7.909,0,0-4.7078,5.2727-10.545,5.6493,0,0,4.237,2.6363,4.6136,18.078z" fill="url(#radialGradient4313)"/>
<path stroke-linejoin="miter" d="m245.15,31.53c3.013,6.9675,11.299,12.429-8.6623,3.013,11.299,32.389-7.1558,5.461-14.877,9.0389,5.6493,16.571-8.474,1.8831-22.597,4.3311,9.4155,15.441-9.4155,1.5065-12.617,5.2727,2.8247,14.688-8.474,3.7662-12.429,6.7792-2.6364,7.1558-1.3182,7.1558-12.052,7.909,0,0-4.4253,5.1785-10.263,5.5552" stroke="#45cdef" stroke-linecap="butt" stroke-width="1px" fill="none"/>
<path stroke-linejoin="miter" d="M270.76,69.569c-28.25-67.038-91.9-67.603-91.9-67.603,0.18831,8.8506-2.6363,34.084-42.935,66.285,23.915-1.6948,19.584,23.727,19.584,23.727z" stroke="#0062bc" stroke-linecap="butt" stroke-width="1px" fill="none"/>
<g stroke-linejoin="miter" stroke-linecap="butt" transform="matrix(-1,0,0,1,804.80704,-59.31558)">
<path stroke="#0b5d71" stroke-width="1px" d="m609,304.87c22.981,23.57,66.586,2.2097,87.063,8.3969,3.3882,1.6204,3.8302-1.0312,2.9463-3.6828-10.901-20.624-12.964-31.967-7.3657-38.302z" fill="url(#linearGradient4283)"/>
<path stroke="url(#linearGradient4285)" stroke-width="1px" d="m639.48,311.25c10.625,2.9167,22.917,2.1875,22.917,2.1875m9.5833-1.9792s-8.125-0.41667-21.354-3.4375m29.688,2.3958s-13.542-3.125-16.979-5.7292m15.729-2.2917,6.0417,8.3333m1.6667-0.10417s-0.41666-11.771-3.0208-16.25" fill="none"/>
<path d="m613.02,304.96c12.083,8.6458,14.375,6.7708,15.104,3.8542,9.375,4.8958,13.021,5.3125,12.812-0.9375,10.208,1.6667,11.562,0.52083,10-3.2292,2.7083,0.52083,4.4792-1.25,4.375-2.9167,10.767,5.3705,8.0208,2.6389,7.5-0.10417,2.6042-0.41667,4.0625-1.5625,3.8542-3.3333,1.6667,0.72917,3.75,0.52083,3.75-0.41667,14.896,12.5,6.5625-1.875,10.625-7.6042,4.2708,8.9583,3.2292,2.5,2.2917-12.292z" stroke="#0b5d70" stroke-miterlimit="4" stroke-dasharray="none" stroke-width="0.60000002" fill="url(#linearGradient4287)"/>
<path stroke="url(#linearGradient4289)" stroke-width="1px" d="m678.44,302.29c-0.625-0.52084-14.479-16.146-14.479-16.146m16.354,5c-2.0006-4.7756-8.1158-8.9254-8.2292-8.3333m-16.458,5.7292s8.5417,8.75,10.833,9.6875m-11.146,3.125c-4.68-2.61-9.57-8.86-9.57-8.86m4.7917,11.771c-3.9583-1.9792-11.042-9.375-11.042-9.375m1.4583,13.021c-2.3958-1.25-9.6875-9.375-9.6875-9.375m-2.7083,10c-3.9583-1.9792-8.0208-6.6667-8.0208-6.6667" fill="none"/>
<path d="m613.02,304.96c12.083,8.6458,14.375,6.7708,15.104,3.8542,9.375,4.8958,13.021,5.3125,12.812-0.9375,10.208,1.6667,11.562,0.52083,10-3.2292,2.7083,0.52083,4.4792-1.25,4.375-2.9167,10.767,5.3705,8.0208,2.6389,7.5-0.10417,2.6042-0.41667,4.0625-1.5625,3.8542-3.3333,1.6667,0.72917,3.75,0.52083,3.75-0.41667,14.896,12.5,6.5625-1.875,10.625-7.6042,4.2708,8.9583,3.2292,2.5,2.2917-12.292z" stroke="#0b5d70" stroke-miterlimit="4" stroke-dasharray="none" stroke-width="0.60000002" fill="none"/>
</g>
<path d="m111.89,135.01c42.43-80.135,176.17-89.919,212.41-35.71l27.666,33.998,4.2721,5.7452,11.343,7.0711s-6.4818,95.607-158.51,99.732c-57.747,3.8302-98.7-36.239-98.7-36.239-5.3033-5.3033-10.165-5.3033-13.553,0.29462-7.8076,9.4281-18.856,42.279-45.373,47.435,11.196-18.12-5.4506-35.797,14.142-64.229-36.534-27.99-26.075-58.631-59.809-66.881-6.0399-1.6204-4.5667-4.2721,2.0624-6.4818,25.338-2.5043,51.56,3.9775,76.603,24.159,8.3969,10.754,14.337,10.11,27.448-8.8933z" fill="url(#linearGradient3880)"/>
<path stroke-linejoin="miter" d="m353.18,134.77c-11.785,32.114-54.543,25.493-54.543,25.493" stroke="#4b737d" stroke-linecap="butt" stroke-width="1px" fill="none"/>
<path stroke-linejoin="miter" d="m356.38,139.05c-6.481,16.49-21.655,23.12-21.655,23.12" stroke="#4b737d" stroke-linecap="butt" stroke-width="1px" fill="none"/>
<path d="m280.39,218.97s-3.75-13.75-21.667-15.833c-47.91-5.63-10.41-103.13,29.8-120.42-46.25,15.418-80.42,114.58-32.71,123.13,18.438-0.10417,24.583,13.125,24.583,13.125z" fill="#92ebf3"/>
<path d="m274.39,218.97s-3.75-13.75-21.667-15.833c-47.91-5.63-10.41-103.13,29.8-120.42-46.25,15.418-80.42,114.58-32.71,123.13,18.438-0.10417,24.583,13.125,24.583,13.125z" fill="#1aa1c1"/>
<path stroke-linejoin="miter" d="m284.2,226.7c-1.77-15.47,28.876-34.62,31.086-39.63" stroke="#4b737d" stroke-linecap="butt" stroke-width="1px" fill="none"/>
<path stroke-linejoin="miter" d="m290.1,225.96c3.24-15.91,30.636-33.88,43.747-49.5" stroke="#4b737d" stroke-linecap="butt" stroke-width="1px" fill="none"/>
<path stroke-linejoin="miter" d="m260.23,76.684c-19.583-0.625-23.958,8.125-22.5,11.25,1.4583,3.3333-0.625,10.417-7.2917,10-5.625,0-11.042,4.375-9.375,12.917,1.4583,6.25,1.0417,8.3333-5.625,10.417-7.2917,2.2917-11.667,13.125-6.0417,14.792,6.875,1.4583,3.3333,10-1.6667,13.125-5.4167,4.375-8.75,13.333,0.20833,13.125,6.6667-0.20833,7.9167,1.875,1.6667,10.417-6.875,5.2083-5.4167,12.917,2.7083,13.125,5.8333,1.875,7.5,4.1667,3.75,8.125-4.1667,3.9583-1.6667,11.25,3.9583,10,3.125-1.0417,7.0833-0.00001,6.0417,4.7917-1.4583,4.7917,2.5,6.875,19.167,3.3333" stroke="#1ea0be" stroke-linecap="butt" stroke-dasharray="none" stroke-miterlimit="4" stroke-width="1.39999998" fill="none"/>
<path stroke-linejoin="miter" d="m261.41,76.684c-19.583-0.625-23.958,8.125-22.5,11.25,1.4583,3.3333-0.625,10.417-7.2917,10-5.625,0-11.042,4.375-9.375,12.917,1.4583,6.25,1.0417,8.3333-5.625,10.417-7.2917,2.2917-11.667,13.125-6.0417,14.792,6.875,1.4583,3.3333,10-1.6667,13.125-5.4167,4.375-8.75,13.333,0.20833,13.125,6.6667-0.20833,7.9167,1.875,1.6667,10.417-6.875,5.2083-5.4167,12.917,2.7083,13.125,5.8333,1.875,7.5,4.1667,3.75,8.125-4.1667,3.9583-1.6667,11.25,3.9583,10,3.125-1.0417,7.0833-0.00001,6.0417,4.7917-1.4583,4.7917,2.5,6.875,19.167,3.3333" stroke="#91ebf5" stroke-linecap="butt" stroke-dasharray="none" stroke-miterlimit="4" stroke-width="1.39999998" fill="none"/>
<path stroke-linejoin="miter" d="m219.39,76.892c-19.792,8.3333-28.542,14.375-21.25,18.125,5.625,3.9583,3.9583,5.2083-5.625,9.1667-7.9167,3.125-12.917,9.5833-5,11.458,7.5,1.875,7.2917,5-2.9167,10.833-11.042,6.25-11.458,10-3.125,11.458,8.9583,0.625,7.5,4.1667-1.875,11.875-8.3333,5.2083-8.3333,13.125,0.41666,11.25,7.7083-2.0833,7.9167,0.83333,1.875,10.625-6.25,5.625-6.25,10.417,0,9.375,8.125-1.0417,7.7083,3.75,2.7083,7.9167-5.2083,6.4583-3.9583,10.417,2.0833,10,8.9583-2.7083,8.9583,0.625,4.7917,7.5-2.5,4.1667-4.375,8.3333,4.5833,7.2917,7.5-0.625,11.042-0.83333,7.7083,5.4167-1.875,6.0417-0.62499,6.25,28.333,2.9167" stroke="#1ea0be" stroke-linecap="butt" stroke-dasharray="none" stroke-miterlimit="4" stroke-width="1.39999998" fill="none"/>
<path stroke-linejoin="miter" d="m220.57,76.892c-19.792,8.3333-28.542,14.375-21.25,18.125,5.625,3.9583,3.9583,5.2083-5.625,9.1667-7.9167,3.125-12.917,9.5833-5,11.458,7.5,1.875,7.2917,5-2.9167,10.833-11.042,6.25-11.458,10-3.125,11.458,8.9583,0.625,7.5,4.1667-1.875,11.875-8.3333,5.2083-8.3333,13.125,0.41666,11.25,7.7083-2.0833,7.9167,0.83333,1.875,10.625-6.25,5.625-6.25,10.417,0,9.375,8.125-1.0417,7.7083,3.75,2.7083,7.9167-5.2083,6.4583-3.9583,10.417,2.0833,10,8.9583-2.7083,8.9583,0.625,4.7917,7.5-2.5,4.1667-4.375,8.3333,4.5833,7.2917,7.5-0.625,11.042-0.83333,7.7083,5.4167-1.875,6.0417-0.62499,6.25,28.333,2.9167" stroke="#91ebf5" stroke-linecap="butt" stroke-dasharray="none" stroke-miterlimit="4" stroke-width="1.39999998" fill="none"/>
<path stroke-linejoin="miter" d="m209.81,235.64c-32.917-5.4167-32.292-7.2917-31.667-10.833,2.2917-4.5833,1.6667-5.625-6.875-6.4583-6.6667-0.41667-9.5833-3.3333-5.2083-9.1667,4.7917-5,1.875-7.2917-3.3333-7.0833-6.4583,1.25-10.417-2.2917-4.375-8.3333,3.75-3.5417,6.875-8.5417-3.3333-7.2917-6.6667,1.6667-8.3333-3.125-2.5-7.7083,3.3333-3.75,7.9167-9.1667-2.0833-7.2917-7.9167,0.83333-7.2917-4.375-1.25-9.1667,5.2083-4.1667,10.208-9.7917,1.0417-10.208-6.0417-0.20833-6.4583-2.0833,0.20833-9.1667,4.7917-3.9583,7.7083-8.75,0.625-8.75-5.8333,0.20833-5.4167-2.5,1.4583-8.9583,9.375-8.75,9.7917-11.667,3.125-11.667-6.875,0.625-2.5-6.6667,17.708-18.125" stroke="#1ea0be" stroke-linecap="butt" stroke-dasharray="none" stroke-miterlimit="4" stroke-width="1.39999998" fill="none"/>
<path stroke-linejoin="miter" d="m210.99,235.64c-32.917-5.4167-32.292-7.2917-31.667-10.833,2.2917-4.5833,1.6667-5.625-6.875-6.4583-6.6667-0.41667-9.5833-3.3333-5.2083-9.1667,4.7917-5,1.875-7.2917-3.3333-7.0833-6.4583,1.25-10.417-2.2917-4.375-8.3333,3.75-3.5417,6.875-8.5417-3.3333-7.2917-6.6667,1.6667-8.3333-3.125-2.5-7.7083,3.3333-3.75,7.9167-9.1667-2.0833-7.2917-7.9167,0.83333-7.2917-4.375-1.25-9.1667,5.2083-4.1667,10.208-9.7917,1.0417-10.208-6.0417-0.20833-6.4583-2.0833,0.20833-9.1667,4.7917-3.9583,7.7083-8.75,0.625-8.75-5.8333,0.20833-5.4167-2.5,1.4583-8.9583,9.375-8.75,9.7917-11.667,3.125-11.667-6.875,0.625-2.5-6.6667,17.708-18.125" stroke="#91ebf5" stroke-linecap="butt" stroke-dasharray="none" stroke-miterlimit="4" stroke-width="1.39999998" fill="none"/>
<path stroke-linejoin="miter" d="m162.93,232.3c-24.583-11.458-21.25-14.375-19.375-14.167,3.9583-0.20833,5.625-1.4583-5.625-7.2917-7.5-1.875-7.7083-7.7083-3.9583-8.3333,3.9583-0.20833,7.9167-2.0833-2.2917-5.2083-8.125-1.25-9.7917-7.5-3.5417-10.625,5-1.875,7.0833-4.1667-1.875-6.0417-7.0833,0-6.0417-5.4167-1.875-8.3333,4.5833-3.3333,7.2917-8.75-1.6667-7.2917-6.25-0.83333-7.2917-2.9167-2.5-8.75,2.7083-3.75,6.0417-10-0.41667-8.125-8.75,0.20833,3.3333-12.917,10.833-20.208" stroke="#1ea0be" stroke-linecap="butt" stroke-dasharray="none" stroke-miterlimit="4" stroke-width="1.39999998" fill="none"/>
<path stroke-linejoin="miter" d="m164.11,232.3c-24.583-11.458-21.25-14.375-19.375-14.167,3.9583-0.20833,5.625-1.4583-5.625-7.2917-7.5-1.875-7.7083-7.7083-3.9583-8.3333,3.9583-0.20833,7.9167-2.0833-2.2917-5.2083-8.125-1.25-9.7917-7.5-3.5417-10.625,5-1.875,7.0833-4.1667-1.875-6.0417-7.0833,0-6.0417-5.4167-1.875-8.3333,4.5833-3.3333,7.2917-8.75-1.6667-7.2917-6.25-0.83333-7.2917-2.9167-2.5-8.75,2.7083-3.75,6.0417-10-0.41667-8.125-8.75,0.20833,3.3333-12.917,10.833-20.208" stroke="#91ebf5" stroke-linecap="butt" stroke-dasharray="none" stroke-miterlimit="4" stroke-width="1.39999998" fill="none"/>
<path stroke-linejoin="miter" d="m373.66,131.37-8.854-1.98,5.1042,7.3958z" stroke="#15567c" stroke-linecap="butt" stroke-dasharray="none" stroke-miterlimit="4" stroke-width="0.60000002" fill="#d2ffff"/>
<path stroke-linejoin="miter" d="m369.29,138.03-14.375-0.72917,10.833,7.7083z" stroke="#15567c" stroke-linecap="butt" stroke-dasharray="none" stroke-miterlimit="4" stroke-width="0.60000002" fill="#d2ffff"/>
<path stroke-linejoin="miter" d="m365.43,145.74-8.8542,0,5.9375,4.8958z" stroke="#15567c" stroke-linecap="butt" stroke-dasharray="none" stroke-miterlimit="4" stroke-width="0.60000002" fill="#d2ffff"/>
<path stroke-linejoin="miter" d="m361.79,152.83-13.646-0.41666,9.8958,6.875z" stroke="#15567c" stroke-linecap="butt" stroke-dasharray="none" stroke-miterlimit="4" stroke-width="0.60000002" fill="#d2ffff"/>
<path stroke-linejoin="miter" d="m357.52,159.6-5.625,0.20833,3.3333,3.75z" stroke="#15567c" stroke-linecap="butt" stroke-dasharray="none" stroke-miterlimit="4" stroke-width="0.60000002" fill="#d2ffff"/>
<path stroke-linejoin="miter" d="m353.87,165.43c-0.9375-0.20833-12.5-4.6875-12.5-4.6875l9.375,9.375z" stroke="#15567c" stroke-linecap="butt" stroke-dasharray="none" stroke-miterlimit="4" stroke-width="0.60000002" fill="#d2ffff"/>
<path stroke-linejoin="miter" d="m349.39,171.99-4.6875-0.625,2.1875,4.1667z" stroke="#15567c" stroke-linecap="butt" stroke-dasharray="none" stroke-miterlimit="4" stroke-width="0.60000002" fill="#d2ffff"/>
<path stroke-linejoin="miter" d="m346.68,175.95-13.438-4.4792,9.7917,9.375z" stroke="#15567c" stroke-linecap="butt" stroke-dasharray="none" stroke-miterlimit="4" stroke-width="0.60000002" fill="#d2ffff"/>
<path stroke-linejoin="miter" d="m342.52,181.37c-0.72916-0.10417-11.25-2.6042-11.25-2.6042l7.9167,6.7708z" stroke="#15567c" stroke-linecap="butt" stroke-dasharray="none" stroke-miterlimit="4" stroke-width="0.60000002" fill="#d2ffff"/>
<path stroke-linejoin="miter" d="m338.04,186.16c-0.625,0-5.4167-0.9375-5.4167-0.9375l2.8125,4.1667z" stroke="#15567c" stroke-linecap="butt" stroke-dasharray="none" stroke-miterlimit="4" stroke-width="0.60000002" fill="#d2ffff"/>
<path stroke-linejoin="miter" d="m334.91,190.33-6.9792-2.6042,3.6458,6.1458z" stroke="#15567c" stroke-linecap="butt" stroke-dasharray="none" stroke-miterlimit="4" stroke-width="0.60000002" fill="#d2ffff"/>
<path stroke-linejoin="miter" d="m281.69,234.39s96.875-17.292,106.25-88.75c1.4533-15.21-11.463-26.04-21.047-3.34-25.625,55-73.125,85.833-73.125,85.833" stroke="#0b5d82" stroke-linecap="butt" stroke-width="1px" fill="none"/>
<g transform="matrix(-1,0,0,1,394.80704,-13.315579)">
<path stroke-linejoin="miter" d="m327.99,249.54c-14.123-9.2272-22.786-30.695-31.636-35.779" stroke="#266984" stroke-linecap="butt" stroke-width="1px" fill="none"/>
<path stroke-linejoin="miter" d="m327.99,248.52c-14.123-9.2272-22.786-30.695-31.636-35.779" stroke="#50ffff" stroke-linecap="butt" stroke-width="1px" fill="none"/>
<path stroke-linejoin="miter" d="m332.7,229.77c-19.396-1.5065-31.825-22.974-36.532-26.364" stroke="#266984" stroke-linecap="butt" stroke-width="1px" fill="none"/>
<path stroke-linejoin="miter" d="m332.7,228.75c-19.396-1.5065-31.825-22.974-36.532-26.364" stroke="#50ffff" stroke-linecap="butt" stroke-width="1px" fill="none"/>
<path stroke-linejoin="miter" d="m324.22,215.27c-10.357-1.1299-22.786-15.065-28.812-17.89" stroke="#266984" stroke-linecap="butt" stroke-width="1px" fill="none"/>
<path stroke-linejoin="miter" d="m324.22,214.25c-10.357-1.1299-22.786-15.065-28.812-17.89" stroke="#50ffff" stroke-linecap="butt" stroke-width="1px" fill="none"/>
<path stroke-linejoin="miter" d="M323.28,200.02c-11.67-1.32-25.42-10.17-27.68-11.87" stroke="#266984" stroke-linecap="butt" stroke-width="1px" fill="none"/>
<path stroke-linejoin="miter" d="M323.28,198.99c-11.67-1.31-25.42-10.16-27.68-11.86" stroke="#50ffff" stroke-linecap="butt" stroke-width="1px" fill="none"/>
<path stroke-linejoin="miter" d="m328.37,190.98s-17.701-5.6493-30.695-6.9675" stroke="#266984" stroke-linecap="butt" stroke-width="1px" fill="none"/>
<path stroke-linejoin="miter" d="m328.37,189.96s-17.701-5.6493-30.695-6.9675" stroke="#50ffff" stroke-linecap="butt" stroke-width="1px" fill="none"/>
<path stroke-linejoin="miter" d="m334.39,183.07c-9.9805-3.7662-30.695-4.3311-30.695-4.3311" stroke="#266984" stroke-linecap="butt" stroke-width="1px" fill="none"/>
<path stroke-linejoin="miter" d="m334.39,182.05c-9.9805-3.7662-30.695-4.3311-30.695-4.3311" stroke="#50ffff" stroke-linecap="butt" stroke-width="1px" fill="none"/>
<path stroke-linejoin="miter" d="m344.56,170.26c-13.935-1.3182-37.286,1.3182-37.286,1.3182" stroke="#266984" stroke-linecap="butt" stroke-width="1px" fill="none"/>
<path stroke-linejoin="miter" d="m344.56,169.24c-13.935-1.3182-37.286,1.3182-37.286,1.3182" stroke="#50ffff" stroke-linecap="butt" stroke-width="1px" fill="none"/>
<path stroke-linejoin="miter" d="m349.08,151.62c-23.162,0.75324-37.85,14.312-37.85,14.312" stroke="#266984" stroke-linecap="butt" stroke-width="1px" fill="none"/>
<path stroke-linejoin="miter" d="m349.08,150.6c-23.162,0.75324-37.85,14.312-37.85,14.312" stroke="#50ffff" stroke-linecap="butt" stroke-width="1px" fill="none"/>
<path d="m343.36,270.66c-11.196-18.12,5.4506-35.797-14.142-64.229,36.534-27.99,26.075-58.631,59.809-66.881,6.0399-1.6204,4.5667-4.2721-2.0624-6.4818-25.422-2.0714-43.063,5.4534-43.063,5.4534,5.3669,1.224,6.4442,3.868,5.9734,5.3744-3.013,10.075-40.484,8.8192-13.367,15.787-3.2013,9.9805-22.681,5.5237-11.1,16.257-15.441,8.474-26.636,0.72179-16.184,9.8549-17.513-2.9188-15.672,0.12272,7.1133,12.551-16.383-0.37662-6.7359,2.6632,2.5855,8.8775-13.841,1.0357-0.0508,4.0755-0.80406,11.702-13.182-2.2597,3.4762,6.7388,3.6646,14.554-16.289-3.2013-2.817,3.1029-6.3007,9.0347-0.46115,1.1529-2.1308,1.5554-5.3274,0.602,15.178,25.649,33.205,27.544,33.205,27.544z" fill="url(#radialGradient4286)"/>
<path stroke-linejoin="miter" d="m343.91,138.52c5.3669,1.224,6.4442,3.868,5.9734,5.3744-3.013,10.075-40.484,8.8192-13.367,15.787-3.2013,9.9805-22.681,5.5237-11.1,16.257-15.441,8.474-26.636,0.72179-16.184,9.8549-17.513-2.9188-15.672,0.12272,7.1133,12.551-16.383-0.37662-6.7359,2.6632,2.5855,8.8775-13.841,1.0357-0.0508,4.0755-0.80406,11.702-13.182-2.2597,3.4762,6.7388,3.6646,14.554-16.289-3.2013-2.817,3.1029-6.3007,9.0347-0.46115,1.1529-2.1308,1.5554-5.3274,0.602" stroke="#0b5d82" stroke-linecap="butt" stroke-width="1px" fill="none"/>
</g>
<path stroke-linejoin="miter" d="m111.89,135.01c42.43-80.135,176.17-89.919,212.41-35.71l27.666,33.998,4.2721,5.7452,11.343,7.0711s-6.4818,95.607-158.51,99.732c-57.747,3.8302-98.7-36.239-98.7-36.239-5.3033-5.3033-10.165-5.3033-13.553,0.29462-7.8076,9.4281-18.856,42.279-45.373,47.435,11.196-18.12-5.4506-35.797,14.142-64.229-36.534-27.99-26.075-58.631-59.809-66.881-6.0399-1.6204-4.5667-4.2721,2.0624-6.4818,25.338-2.5043,51.56,3.9775,76.603,24.159,8.3969,10.754,14.337,10.11,27.448-8.8933z" stroke="#0b5d82" stroke-linecap="butt" stroke-width="1px" fill="none"/>
<g transform="matrix(-0.86439851,0,0,0.86439851,671.5742,3.7219639)">
<path fill="#FFF" d="m521.88,129.79c0,19.215-16.789,34.792-37.5,34.792s-37.5-15.577-37.5-34.792,16.789-34.792,37.5-34.792,37.5,15.577,37.5,34.792z" transform="matrix(0.97520437,0,0,0.99423225,-65.052116,1.7902721)"/>
<path d="m500.28,138.52c0,6.4274-5.2104,11.638-11.638,11.638-6.4274,0-11.638-5.2104-11.638-11.638,0-6.4274,5.2104-11.638,11.638-11.638,6.4274,0,11.638,5.2104,11.638,11.638z" fill-rule="evenodd" transform="matrix(1.1265823,0,0,1.1265823,-138.67468,-19.154352)" fill="#000"/>
<path d="m495.56,139.11c0,2.1153-1.7148,3.8302-3.8302,3.8302-2.1153,0-3.8302-1.7148-3.8302-3.8302,0-2.1153,1.7148-3.8302,3.8302-3.8302,2.1153,0,3.8302,1.7148,3.8302,3.8302z" fill-rule="evenodd" transform="translate(-77.410744,-0.44194174)" fill="#c7d4dc"/>
<path stroke-linejoin="miter" d="m407.31,96.25c-18.901,0-34.457,13.54-36.375,30.938,20.375,11.531,52.194,12.151,72.438,9.4375,0.33601-1.8843,0.5-3.8066,0.5-5.7812,0-19.104-16.365-34.594-36.562-34.594z" stroke="#4b737d" stroke-linecap="butt" stroke-width="1px" fill="url(#radialGradient3938)"/>
<path stroke-linejoin="miter" d="m521.88,129.79c0,19.215-16.789,34.792-37.5,34.792s-37.5-15.577-37.5-34.792,16.789-34.792,37.5-34.792,37.5,15.577,37.5,34.792z" transform="matrix(0.97520437,0,0,0.99423225,-65.052116,1.7902721)" stroke="#4b737d" stroke-linecap="round" stroke-miterlimit="4" stroke-dasharray="none" stroke-width="1" fill="none"/>
</g>
<path fill="#000" d="m312.03,81.307c3.0561,1.0824,4.0748-2.7377,1.4007-3.3108-19.929-4.0748-19.228,19.228-19.228,19.228s3.3744-21.966,17.827-15.917z"/>
<path d="m281.69,234.39s96.875-17.292,106.25-88.75c1.4533-15.21-11.463-26.04-21.047-3.34-25.625,55-73.125,85.833-73.125,85.833z" fill="url(#linearGradient4149)"/>
<g transform="matrix(-1,0,0,1,394.80704,-13.315579)">
<path d="m127.5,250.42c-2.0833-17.292,1.875-31.458,31.875-7.2917,11.667,10.625,36.25,32.604,51.458,45.938,5.6254,5.2083,1.6616,5.625-6.6667,5.4167-35.521-0.3125-71.458-3.4375-76.667-44.062z" fill="url(#linearGradient4349)"/>
<path d="m199.01,278.62s-5.1526,5.2388-10.048,0.23884-5.7292,5.8333-13.021-0.83333c0,0-6.7708,4.8958-13.229-1.6667,0,0-6.7708,4.4792-11.354-2.7083,0,0-8.2292,5.2083-14.062-11.042,0,0-7.3568,2.3828-8.2422-4.9609-0.78125-3.2812-2.1745-6.7578-1.862-16.706,0.53085-9.6239,5.9639-15.476,22.021-5.3117,12.522,8.1023,18.007,15.355,49.798,42.989z" stroke="url(#linearGradient4341)" stroke-miterlimit="4" stroke-dasharray="none" stroke-width="1" fill="url(#linearGradient4344)"/>
<path stroke-linejoin="miter" d="m189,278.61c-9.2808-7.6603-43.016-39.775-43.016-39.775m30.052,39.186c-13.848-13.258-33.588-38.154-33.588-38.154m20.182,36.239c-14.584-16.646-23.718-35.65-23.718-35.65m12.227,33.293c-11.932-16.941-15.468-34.177-15.468-34.177m1.4731,22.834c-3.8302-10.312-3.9775-23.865-3.9775-23.865" stroke="url(#linearGradient4337)" stroke-linecap="butt" stroke-width="1px" fill="none"/>
<path d="m199.01,278.62s-5.1526,5.2388-10.048,0.23884-5.7292,5.8333-13.021-0.83333c0,0-6.7708,4.8958-13.229-1.6667,0,0-6.7708,4.4792-11.354-2.7083,0,0-8.2292,5.2083-14.062-11.042,0,0-7.3568,2.3828-8.2422-4.9609-0.78125-3.2812-2.1745-6.7578-1.862-16.706,0.53085-9.6239,5.9639-15.476,22.021-5.3117,12.522,8.1023,18.007,15.355,49.798,42.989z" stroke="url(#linearGradient4341)" stroke-miterlimit="4" stroke-dasharray="none" stroke-width="1" fill="none"/>
<path stroke-linejoin="miter" d="m127.5,250.42c-2.0833-17.292,1.875-31.458,31.875-7.2917,11.667,10.625,36.25,32.604,51.458,45.938,5.6254,5.2083,1.6616,5.625-6.6667,5.4167-35.521-0.3125-71.458-3.4375-76.667-44.062z" stroke="#0062bc" stroke-linecap="butt" stroke-width="1px" fill="none"/>
</g>
</svg>
