<!-- Created with Inkscape (http://www.inkscape.org/) -->
<svg xmlns:rdf="http://www.w3.org/1999/02/22-rdf-syntax-ns#" xmlns="http://www.w3.org/2000/svg" height="375" width="428" version="1.1" xmlns:cc="http://creativecommons.org/ns#" xmlns:dc="http://purl.org/dc/elements/1.1/">
<metadata>
<rdf:RDF>
<cc:Work rdf:about="">
<dc:format>image/svg+xml</dc:format>
<dc:type rdf:resource="http://purl.org/dc/dcmitype/StillImage"/>
<dc:title/>
</cc:Work>
</rdf:RDF>
</metadata>
<path stroke-linejoin="miter" d="m258.53,362.52c20.373-28.312,9.737-48.236,15.28-59.471l-11.085,5.0932c-6.741,14.68,8.239,33.405-4.1944,54.378z" stroke="#000" stroke-linecap="butt" stroke-miterlimit="4" stroke-dasharray="none" stroke-width="2" fill="#2a1e22"/>
<path fill="#fc9e01" d="m339.01,257.66c-29.96,27.563-85.386,77.896-239.98,96.471,26.365-10.186,40.746-33.555,40.146-62.317,1.498-35.652-26.964-53.329-14.381-81.491,5.0932-9.5872-0.5992-24.867-33.256,18.575-5.6924,4.494-45.539,43.742-88.981,19.174,42.843,5.3928,51.232-59.021,88.682-60.519-53.928,4.1944-22.47-67.71-80.293-77.896,78.196-12.583,80.593,79.694,110.25,64.714-29.36-94.067,114.45-101.86-1.8-172.56,20.98,17.376,194.74,31.158,231.3,125.83z"/>
<path fill="#ffc033" d="m334.29,195.12c-35.591,114.4-184.73,69.487-193.21,7.6266-0.1498-13.782-38.227-8.2434-46.466,10.332-15.28,28.013-69.665,48.109-91.236,36.275,47.487-1.0486,53.628-62.785,87.184-61.137-52.73-0.5992-20.112-64.427-79.133-79.108,79.694-8.5386,75.083,77.178,110.44,68.489,7.49-1.0486,9.7344-10.935,9.0475-14.68-5.2962-92.366,150.63-110.59,208.46-45.336,1.0486-13.782-44.065-52.115-44.065-52.115s35.804,21.863,57.075,63.358z"/>
<path fill="#fec133" d="m275.36,271.81-23.515,4.0251s-2.9659,28.388-27.329,45.971c38.557-11.016,50.844-49.996,50.844-49.996z"/>
<path fill="#fec133" d="m214.56,280.49c-9.3214,0.63555-22.456-6.1436-22.456-6.1436,0,18.855-8.6858,42.37-52.751,69.91,76.054-13.135,74.359-50.42,75.207-63.767z"/>
<path stroke-linejoin="miter" d="m318.75,201.03c4.1944,0.2996,7.9394-11.825,8.239-18.575,0.2996-8.5386-0.74899-17.826-4.1944-17.077-3.2956-0.5992-9.1378,6.2916-9.8868,17.377-0.2996,8.239,1.498,18.425,5.8422,18.276z" stroke="#000" stroke-linecap="butt" stroke-miterlimit="4" stroke-dasharray="none" stroke-width="1.39999998" fill="#423c30"/>
<path stroke-linejoin="miter" d="m257.64,216.46c4.3442-0.1498,6.5912-25.316,6.4414-32.507,0.749-15.579-4.3442-33.106-5.8422-32.956-1.7976,0.1498-6.5912,14.83-6.4414,31.758,0.1498,17.976,4.3442,34.005,5.8422,33.705z" stroke="#000" stroke-linecap="butt" stroke-miterlimit="4" stroke-dasharray="none" stroke-width="1.39999998" fill="#423c30"/>
<path stroke-linejoin="miter" d="m191.93,210.16s6.2057-4.3346,6.3555-19.914c0-13.482-11.502-42.139-11.652-46.183-5.0932,3.8948-5.7199,16.965-6.1693,22.657-0.4494,9.1378,7.421,42.691,11.466,43.44z" stroke="#000" stroke-linecap="butt" stroke-miterlimit="4" stroke-dasharray="none" stroke-width="1.39999998" fill="#423c30"/>
<path stroke-linejoin="miter" d="m93.454,197.89c-15.579-2.247-31.608,26.664-25.766,29.66,12.284,2.6964,11.235-21.272,25.766-29.66z" stroke="#000" stroke-linecap="butt" stroke-miterlimit="4" stroke-dasharray="none" stroke-width="2" fill="#423c30"/>
<path fill="#fbd78d" d="m95.254,186.05c16.178-1.6478,9.5872-15.28,5.5426-18.575-12.883-8.0892-23.069-60.37-82.54-58.872,31.458,6.9657,41.701,33.237,43.498,51.962,0.8988,10.636,10.297,29.365,33.499,25.485z"/>
<path stroke-linejoin="miter" d="m98.554,181.56c-14.68-6.8908,3.2956-29.66-47.037-55.876,23.818,23.818-1.9474,55.726,47.037,55.876z" stroke="#000" stroke-linecap="butt" stroke-miterlimit="4" stroke-dasharray="none" stroke-width="2" fill="#423c30"/>
<path fill="#85666b" d="m88.814,173.92c-12.883,2.0972-23.968-18.575-24.268-35.652,5.6924,3.2956,24.118,22.17,24.268,35.652z"/>
<path fill="#2c1d23" d="m207.61,327.31s56.776-39.404,36.65-121.18c-4.4488-16.101-4.4488-45.971,1.2711-58.682,22.456-89.189-42.158-114.61-42.158-114.61s46.183,30.294,16.948,102.11c-13.982,27.752-11.864,57.835-1.6948,87.282,15.889,69.487-11.016,105.08-11.016,105.08z"/>
<path fill="#2c1d23" d="m146.59,332.82s59.953-43.005,32.201-127.32c-11.864-25.846-10.804-61.013,7.2029-81.986,52.327-68.427-17.372-99.146-17.372-99.146s52.751,29.871,2.9659,91.307c-30.93,30.506-27.964,55.928-11.016,102.75,21.185,78.596-13.982,114.4-13.982,114.4z"/>
<path fill="#46363b" d="m205.01,82.438c-1.5021,11.781-7.0441,25.428-19,41.063-18.007,20.973-19.082,56.154-7.2188,82,5.8366,17.733,7.7984,33.625,7.25,47.688-7.6368-3.6704-14.662-8.0188-20.781-12.906-1.0797-6.8815-2.6133-14.18-4.6875-21.875-16.948-46.819-19.899-72.244,11.031-102.75,8.4854-10.471,13.984-20.011,17.281-28.656,5.1869-1.8172,10.587-3.3457,16.125-4.5625z"/>
<path fill="#46363b" d="m237.7,78.751c2.3662-0.0257,4.7538,0.0199,7.125,0.0937,6.0403,16.896,8.0968,39.29,0.71875,68.594-5.7199,12.711-5.7301,42.587-1.2812,58.688,5.7178,23.232,5.2248,43.039,1.5938,59.5-7.4264,0.33641-14.888-0.0639-22.219-1.0938,0.008-12.324-1.3671-26.424-5-42.312-10.169-29.447-12.295-59.529,1.6875-87.281,9.2157-22.639,10.932-41.137,8.9688-55.875,2.7948-0.17101,5.5919-0.28189,8.4062-0.3125z"/>
<path fill="#ffdb91" d="m323.28,128.81c21.609,14.194,10.592,23.939-7.6266,16.736-9.957-3.0718-28.282-13.055-40.569-20.682-29.023-17.795-122.34-2.1979-122.34-2.1979s100.2-38.768,170.54,6.1436z"/>
<path fill="#856864" d="m194.13,111.59c-1.2773,2.131-2.6873,4.2853-4.2188,6.5-8.8336,0.78914-16.818,1.7123-23.094,2.5312,1.0548-1.1616,2.1584-2.326,3.3125-3.5,6.5673-1.8188,14.727-3.8016,24-5.5312z"/>
<path fill="#856864" d="m241.91,107.13c2.7313,0.0212,5.4802,0.1177,8.25,0.25,0.13441,3.3077,0.10534,6.7342-0.0625,10.312-7.3363-0.90758-15.367-1.3161-23.594-1.3438,0.7843-3.0579,1.431-6.0304,1.9375-8.9062,4.4091-0.2308,8.9054-0.34785,13.469-0.3125z"/>
<path stroke-linejoin="miter" d="m207.61,327.31s56.776-39.404,36.65-121.18c-4.4488-16.101-4.4488-45.971,1.2711-58.682,22.456-89.189-42.158-114.61-42.158-114.61s46.183,30.294,16.948,102.11c-13.982,27.752-11.864,57.835-1.6948,87.282,15.889,69.487-11.016,105.08-11.016,105.08z" stroke="#000" stroke-linecap="butt" stroke-miterlimit="4" stroke-dasharray="none" stroke-width="2" fill="none"/>
<path stroke-linejoin="miter" d="m146.59,332.82s59.953-43.005,32.201-127.32c-11.864-25.846-10.804-61.013,7.2029-81.986,52.327-68.427-17.372-99.146-17.372-99.146s52.751,29.871,2.9659,91.307c-30.93,30.506-27.964,55.928-11.016,102.75,21.185,78.596-13.982,114.4-13.982,114.4z" stroke="#000" stroke-linecap="butt" stroke-miterlimit="4" stroke-dasharray="none" stroke-width="2" fill="none"/>
<path fill="#2c1d23" d="m300.18,287.27s21.185-31.777,9.9569-74.783c-6.7792-25.422-0.4237-48.937,4.6607-60.589,20.338-64.402-34.108-88.553-34.108-88.553s43.217,23.515,20.549,82.198c-7.6266,13.77-11.016,30.718-6.991,49.361,6.991,76.901-31.566,116.31-31.566,116.31s36.438-18.855,37.497-23.939z"/>
<path fill="#46363b" d="m304.13,92.188c3.2372,1.4864,6.4159,3.0765,9.4688,4.8125,6.1147,13.531,8.5538,31.58,1.1875,54.906-5.0844,11.652-11.435,35.172-4.6562,60.594,1.9954,7.6426,2.9386,14.901,3.1875,21.719-6.7349,7.8219-14.365,14.054-22.594,18.812,3.6956-16.097,5.5907-35.471,3.5312-58.125-4.0251-18.643-0.62658-35.605,7-49.375,8.8578-22.931,7.6281-40.457,2.875-53.344z"/>
<path fill="#856864" d="m307.48,120.28c4.0176,1.8116,7.9672,3.8218,11.844,6.0938-0.15509,6.0079-1.002,12.497-2.7812,19.5-0.30245-0.11169-0.5996-0.22252-0.90625-0.34375-3.3879-1.0452-7.7733-2.9071-12.531-5.1875,2.4073-7.2461,3.7924-13.934,4.375-20.062z"/>
<path stroke-linejoin="miter" d="m300.18,287.27s21.185-31.777,9.9569-74.783c-6.7792-25.422-0.4237-48.937,4.6607-60.589,20.338-64.402-34.108-88.553-34.108-88.553s43.217,23.515,20.549,82.198c-7.6266,13.77-11.016,30.718-6.991,49.361,6.991,76.901-31.566,116.31-31.566,116.31" stroke="#000" stroke-linecap="butt" stroke-miterlimit="4" stroke-dasharray="none" stroke-width="2" fill="none"/>
<path stroke-linejoin="miter" d="m339.01,257.66c-29.96,27.563-85.386,77.896-239.98,96.471,26.365-10.186,40.746-33.555,40.146-62.317,1.498-35.652-26.964-53.329-14.381-81.491,5.0932-9.5872-0.5992-24.867-33.256,18.575-5.6924,4.494-45.539,43.742-88.981,19.174,42.843,5.3928,51.232-59.021,88.682-60.519-53.928,4.1944-22.47-67.71-80.293-77.896,78.196-12.583,80.593,79.694,110.25,64.714-29.36-94.067,114.45-101.86-1.8-172.56,20.98,17.376,194.74,31.158,231.3,125.83z" stroke="#ae790f" stroke-linecap="butt" stroke-miterlimit="4" stroke-dasharray="none" stroke-width="2" fill="none"/>
<g transform="matrix(-1,0,0,1,443.57462,-23.968043)">
<path fill="#473836" d="m149.74,397.46c-26.905-44.488,28.6-85.799-32.837-112.49,12.711,30.506-1.9066,87.494,32.837,112.49z"/>
<path fill="#291f20" d="m149.74,397.46c-34.743-39.828,8.6858-80.503-32.837-112.49,12.711,30.506-1.9066,87.494,32.837,112.49z"/>
<path d="m149.74,397.46c-26.905-44.488,28.6-85.799-32.837-112.49,12.711,30.506-1.9066,87.494,32.837,112.49z" stroke="#000" stroke-dasharray="none" stroke-miterlimit="4" stroke-width="1.39999998" fill="none"/>
</g>
<path fill="#473738" d="m339.17,259.94c-29.871-78.384,13.558-123.51,11.016-142.36,38.345,10.381,47.454,43.429,69.699,54.233,4.6438,1.2733,11.417,9.8413,3.1777,11.864-2.754,27.752-66.309,67.792-83.892,76.266z"/>
<path fill="#2a1e20" d="m339.17,259.94c-19.914-51.931-5.6986-88.552-3.8966-96.172-21.397,113.87,46.736,67.338,61.248,39.162,4.1195-7.0406,0.38561-12.188,0.23581-14.66-0.5243-4.2693,1.8366-6.3976,1.8366-6.3976-1.0486,8.988,0.98563,7.3097,23.727,5.1903-6.0496,26.104-65.567,64.402-83.151,72.876z"/>
<path stroke-linejoin="miter" d="m402.83,184.52,20.337-0.95" stroke="#000" stroke-linecap="butt" stroke-miterlimit="4" stroke-dasharray="none" stroke-width="1.39999998" fill="none"/>
<path fill="#816d6e" d="m403.04,182.09c-4.0251,0-3.6582-4.8563-1.7742-9.3346,1.827-4.3429,3.2572-8.09-0.0265-16.405,2.5422,2.6481,12.287,13.241,19.172,15.783,7.7325,3.7074,7.2029,10.063,1.5889,9.4273z"/>
<path fill="#816d6e" d="m365.23,158.57c-1.1652-11.016,20.232-22.456,32.413-3.4955-10.804-12.605-29.871-5.5081-32.413,3.4955z"/>
<path fill="#271d1e" d="m383.34,183.78c13.452-0.74147,17.901-11.864,10.91-20.549l-24.257,0.10593c-8.7918,5.2962-2.6481,20.338,13.347,20.443z"/>
<path stroke-linejoin="miter" d="m383.34,177.64c8.474,0.63555,14.194-8.7918,13.77-13.77-0.21185-6.6733-4.7666-12.181-13.029-12.817-7.2029,0.21185-15.995,6.3555-15.677,13.241-0.21185,6.1436,5.1903,13.77,14.935,13.347z" stroke="#000" stroke-linecap="butt" stroke-miterlimit="4" stroke-dasharray="none" stroke-width="1.39999998" fill="#FFF"/>
<path d="m379.94,166.09a5.826,5.826,0,0,0,11.652,0,5.826,5.826,0,1,0,-11.652,0z" fill-rule="evenodd" stroke="#000" stroke-miterlimit="4" stroke-dasharray="none" stroke-width="1" fill="#191b18"/>
<path fill="#FFF" d="m385.45,164.18a1.9066,1.9066,0,0,0,3.8133,0,1.9066,1.9066,0,1,0,-3.8133,0z"/>
<path stroke-linejoin="miter" d="m339.17,259.94c-29.871-78.384,13.558-123.51,11.016-142.36,38.345,10.381,47.454,43.429,69.699,54.233,4.6438,1.2733,11.417,9.8413,3.1777,11.864-2.754,27.752-66.309,67.792-83.892,76.266z" stroke="#000" stroke-linecap="butt" stroke-miterlimit="4" stroke-dasharray="none" stroke-width="1.39999998" fill="none"/>
</svg>
